<svg class="" width="100%" height="25px" viewBox="0 0 28 22" focusable="false" aria-hidden="true" fill="white" xmlns="http://www.w3.org/2000/svg">
        <title>Discord</title>
        <path d="M23.3716 2.25875C21.6238 1.43712 19.755 0.840005 17.8013 0.5C17.5613 0.935875 17.281 1.52214 17.0877 1.9885C15.0108 1.67468 12.953 1.67468 10.9143 1.9885C10.7211 1.52214 10.4344 0.935875 10.1923 0.5C8.23641 0.840005 6.36548 1.43932 4.61772 2.2631C1.09247 7.61553 0.136837 12.835 0.614656 17.9804C2.95278 19.7347 5.21871 20.8005 7.4464 21.4978C7.99642 20.7372 8.48698 19.9287 8.90957 19.0766C8.10472 18.7693 7.33384 18.3901 6.60546 17.9499C6.7987 17.8061 6.98771 17.6557 7.17033 17.5009C11.613 19.5887 16.44 19.5887 20.8296 17.5009C21.0143 17.6557 21.2033 17.8061 21.3944 17.9499C20.6639 18.3923 19.8909 18.7715 19.0861 19.0788C19.5087 19.9287 19.9971 20.7394 20.5493 21.5C22.7791 20.8026 25.0471 19.7369 27.3852 17.9804C27.9459 12.0156 26.4275 6.84404 23.3716 2.25875ZM9.51482 14.816C8.18119 14.816 7.0875 13.5651 7.0875 12.0417C7.0875 10.5184 8.15783 9.26528 9.51482 9.26528C10.8719 9.26528 11.9655 10.5162 11.9421 12.0417C11.9443 13.5651 10.8719 14.816 9.51482 14.816ZM18.4851 14.816C17.1514 14.816 16.0578 13.5651 16.0578 12.0417C16.0578 10.5184 17.1281 9.26528 18.4851 9.26528C19.8421 9.26528 20.9358 10.5162 20.9124 12.0417C20.9124 13.5651 19.8421 14.816 18.4851 14.816Z"></path>
    </svg>