<?xml version="1.0" encoding="UTF-8"?>
<svg id="Layer_1" data-name="Layer 1" xmlns="http://www.w3.org/2000/svg" viewBox="0 0 85.58 23.44">
  <defs>
    <style>
      .cls-1 {
        fill: none;
      }

      .cls-2 {
        fill: #fff;
      }
    </style>
  </defs>
  <rect class="cls-1" width="85.58" height="23.44"/>
  <g id="ps5_logo" data-name="ps5 logo">
    <path id="ps_logo" data-name="ps logo" class="cls-2" d="M1.81,18.21c-1.88-.54-2.2-1.65-1.34-2.29.8-.59,2.15-1.04,2.15-1.04l5.58-1.99v2.27l-4.02,1.44c-.71.26-.82.62-.24.81s1.62.14,2.33-.12l1.93-.7v2.03c-.12.02-.26.04-.38.06-2.01.33-4.07.16-6-.48ZM13.59,18.45l6.27-2.24c.71-.26.82-.62.24-.81s-1.62-.14-2.33.12l-4.18,1.47v-2.35l.24-.08c.94-.31,1.92-.51,2.9-.62,1.7-.19,3.77.03,5.4.64,1.84.58,2.05,1.44,1.58,2.03s-1.61,1.01-1.61,1.01l-8.51,3.06v-2.26ZM12.86,20.98l-3.9-1.24V2.41c1.66.31,4.07,1.04,5.37,1.48h0c3.3,1.14,4.42,2.56,4.42,5.75s-1.91,4.29-4.34,3.11v-5.8c0-.68-.12-1.31-.76-1.48-.49-.16-.79.3-.79.98M22.7,19.8s-.01.09-.05.12c-.04.03-.09.04-.14.04h-.3v-.31h.32s.07,0,.1.02c.05.03.07.08.07.13ZM22.92,20.5s-.03-.03-.03-.05c0-.03,0-.06,0-.09v-.14c0-.05-.02-.1-.04-.15-.02-.02-.04-.04-.06-.05.03-.02.06-.05.08-.08.03-.05.04-.11.04-.17,0-.11-.06-.22-.16-.27-.06-.03-.13-.04-.2-.04h-.5v1.1h.19v-.45h.3s.08,0,.11.02c.04.02.07.07.06.12v.17s.01.06.02.09c0,.01,0,.03.01.04h0s.21.01.21.01v-.06h-.01ZM21.63,20.04c0-.22.08-.43.24-.58.31-.32.81-.32,1.13-.01,0,0,0,0,.01.01.32.32.31.84-.01,1.16-.15.15-.35.23-.56.24-.21,0-.42-.09-.57-.24-.15-.15-.24-.36-.24-.58h0ZM22.44,21.03c.26,0,.51-.1.69-.29.38-.39.38-1.01,0-1.39-.18-.18-.43-.29-.69-.29-.55.01-.98.46-.97,1.01,0,.25.11.49.28.67.18.19.43.29.69.29h0Z"/>
    <path id="ps5" class="cls-2" d="M83.82,17.3h-.17v-1.14h-.38v-.16h.93v.16h-.38v1.14ZM84.96,17h0l.35-.99h.26v1.3h-.17v-1.08h0l-.39,1.08h-.11l-.39-1.08h0v1.08h-.16v-1.3h.26l.35.99ZM81.61,6.12h-15.89v4.31s-.05,1.66,2.01,1.66h9.71c.38,0,.76.07,1.11.23.54.24,1.15.73,1.15,1.73,0,.89-.43,1.4-.86,1.68-.35.23-.77.35-1.19.35h-11.93v1.21h13.3s3.02-.12,3.02-3.23c0-1.58-.92-2.36-1.75-2.74-.54-.25-1.12-.37-1.71-.37h-9.62c-.16,0-.32-.04-.46-.11-.21-.11-.43-.33-.43-.77v-2.74h13.54v-1.19ZM45.73,16.06v1.21h6.74c.81,0,1.59-.27,2.2-.8.64-.54,1-1.35.98-2.19v-5.14c0-.57.25-1.11.69-1.47.31-.24.69-.37,1.09-.37h5.88v-1.19h-7s-3.02.05-3.02,3.24v4.8c0,.39-.1.78-.31,1.11-.3.5-.85.81-1.44.79h-5.81ZM30.16,6.12v1.19h12.02c.33,0,.67.07.97.21.48.22,1.01.68,1.01,1.62s-.54,1.36-1.01,1.58c-.31.14-.64.21-.98.21h-8.91c-.53,0-1.05.11-1.52.35-.74.37-1.57,1.25-1.57,2.69v3.28h2.31v-3.27c0-.21.04-.42.11-.62.19-.49.67-1.28,1.8-1.28h8.99c.3,0,.6-.04.89-.12.83-.23,2.2-.91,2.2-2.83,0-2.98-2.97-3.02-2.97-3.02h-13.34Z"/>
  </g>
</svg>