<?xml version="1.0" encoding="UTF-8"?>
<svg id="Layer_1" data-name="Layer 1" xmlns="http://www.w3.org/2000/svg" viewBox="0 0 77.66 23.43">
  <defs>
    <style>
      .cls-1 {
        fill: #fff;
      }
    </style>
  </defs>
  <path id="Steam_white" class="cls-1" d="M11.67,0c-2.94,0-5.78,1.11-7.94,3.1C1.57,5.1.24,7.84,0,10.77l6.27,2.6c.55-.38,1.2-.58,1.87-.58h.19l2.79-4.04v-.06c0-.87.26-1.73.75-2.45.49-.72,1.18-1.29,1.99-1.62.81-.33,1.69-.42,2.55-.24s1.64.59,2.26,1.21c.62.62,1.04,1.41,1.2,2.26.17.86.08,1.74-.25,2.55-.33.81-.9,1.5-1.63,1.98-.73.48-1.58.74-2.45.74h-.1l-3.97,2.84v.16c0,.82-.3,1.62-.85,2.23-.55.61-1.31.99-2.13,1.08-.82.08-1.64-.14-2.3-.63-.66-.49-1.12-1.21-1.28-2.02L.41,14.92c.59,2.1,1.76,3.98,3.37,5.45,1.61,1.47,3.59,2.46,5.74,2.86,2.14.4,4.35.2,6.38-.59,2.03-.79,3.8-2.12,5.12-3.86,1.31-1.74,2.12-3.81,2.32-5.98.2-2.17-.21-4.35-1.18-6.3-.97-1.95-2.47-3.59-4.32-4.74C15.99.62,13.85.02,11.68.02v-.02ZM7.34,17.77l-1.44-.6c.21.43.54.8.95,1.05.41.25.89.37,1.37.36.48-.02.95-.17,1.34-.45.39-.28.7-.66.88-1.11.18-.45.22-.94.13-1.41-.09-.47-.32-.91-.66-1.25-.34-.34-.77-.58-1.24-.69-.47-.1-.96-.07-1.41.1l1.48.61c.45.19.8.54.99.99.19.45.18.95,0,1.4-.19.45-.54.8-.99.99-.45.19-.95.18-1.4,0ZM17.99,7.05c.32.48.5,1.05.49,1.64,0,.78-.31,1.53-.86,2.08-.55.55-1.3.86-2.08.86-.58,0-1.15-.17-1.64-.49-.48-.32-.86-.78-1.09-1.32-.22-.54-.28-1.13-.17-1.7.11-.57.39-1.1.81-1.51.41-.41.94-.69,1.51-.81.57-.11,1.16-.05,1.7.17.54.22,1,.6,1.32,1.09ZM13.71,7.46c-.24.36-.37.79-.37,1.23h-.01c0,.29.06.58.17.85.11.27.28.51.48.72.21.21.45.37.72.48.27.11.56.17.85.16.44,0,.86-.13,1.23-.37.36-.24.65-.59.81-.99s.21-.85.13-1.28c-.09-.43-.3-.82-.6-1.13-.31-.31-.7-.52-1.13-.6-.43-.09-.87-.04-1.28.13-.4.17-.75.45-.99.81ZM35.88,8.01l-.79,1.38c-.63-.43-1.38-.66-2.14-.67-.82,0-1.32.34-1.32.94s.64.84,1.65,1.18c.18.06.38.13.58.2,1.43.51,2.26,1.1,2.26,2.42,0,1.8-1.41,2.81-3.44,2.81-1.09,0-2.16-.28-3.1-.81l.57-1.53c.75.4,1.59.61,2.43.63,1.07,0,1.59-.39,1.59-.98,0-.62-.67-.84-1.76-1.2-.09-.03-.18-.06-.27-.09-1.43-.48-2.42-1.1-2.42-2.56,0-1.64,1.32-2.58,3.2-2.58,1.05-.03,2.09.27,2.96.86ZM42.01,16.12v-7.24h2.68v-1.59h-7.2v1.59h2.68v7.24h1.85ZM48.57,8.88v1.99h3.54v1.59h-3.54v2.07h4.1v1.59h-5.95V7.3h5.95v1.59h-4.1ZM56.22,16.12l.58-1.71h3.44s.6,1.71.6,1.71h2l-3.4-8.82h-1.85l-3.31,8.82h1.94ZM57.3,12.93l1.2-3.53,1.23,3.53h-2.43ZM72.32,10.71l-2.41,5.15h-1.04l-2.38-5.11v5.36h-1.77V7.3h1.77l2.96,6.36,2.87-6.36h1.78v8.82h-1.77v-5.41ZM77.45,9.09c.13-.2.21-.44.21-.68,0-.16-.02-.32-.08-.47s-.15-.29-.26-.4c-.11-.11-.25-.2-.4-.27-.15-.06-.31-.09-.47-.08-.24,0-.48.07-.68.2-.2.13-.36.32-.45.55-.09.22-.12.47-.07.71.05.24.16.46.33.63.17.17.39.29.63.34.24.05.48.02.71-.07.22-.09.41-.25.55-.45ZM75.6,8.97c-.11-.17-.17-.36-.18-.56,0-.14.02-.27.07-.4.05-.13.12-.24.22-.34s.21-.17.34-.22c.13-.05.26-.07.4-.07.2,0,.4.06.56.17.17.11.3.27.37.45.08.19.1.39.06.59-.04.2-.13.38-.28.52-.14.14-.32.24-.52.28-.2.04-.4.02-.59-.05-.19-.08-.35-.2-.46-.37ZM76.88,8.13c0-.18-.11-.35-.42-.35h-.43s0,1.21,0,1.21h.19v-.47h.25l.24.47h.24l-.28-.53c.06-.03.12-.08.16-.13.04-.06.06-.13.06-.2ZM76.44,8.35h-.21v-.38s.21,0,.21,0c.16,0,.22.07.22.18,0,.03,0,.06-.02.08-.01.03-.03.05-.05.07-.02.02-.05.03-.07.04-.03,0-.05.01-.08,0Z"/>
</svg>