<svg class="" xmlns="http://www.w3.org/2000/svg" xmlns:xlink="http://www.w3.org/1999/xlink" x="0px" y="0px" viewBox="0 0 326 374" xml:space="preserve" fill="white">
        <title>TikTok</title>
        <path d="M172.5,4.7h62c0,0-3.4,79.7,86.1,85.2v61.6c0,0-47.8,3-86.1-26.3l0.7,127.1c0,63.5-51.4,114.9-114.9,114.9
        S5.4,315.8,5.4,252.4c0-63.5,51.4-114.9,114.9-114.9h16.1v61.6v1.3c-27.5-8.6-56.8,6.8-65.4,34.3c-8.6,27.5,6.8,56.8,34.3,65.4
        c27.5,8.6,56.8-6.8,65.4-34.3c1.6-5,2.4-10.3,2.4-15.5L172.5,4.7z"></path>
    </svg>