<?xml version="1.0" encoding="UTF-8"?>
<svg id="Layer_1" data-name="Layer 1" xmlns="http://www.w3.org/2000/svg" viewBox="0 0 133.31 23.44">
  <defs>
    <style>
      .cls-1 {
        fill: none;
      }

      .cls-2 {
        fill: #fff;
      }
    </style>
  </defs>
  <rect class="cls-1" width="133.31" height="23.44"/>
  <g>
    <path class="cls-2" d="M70.76,8.58v2.89h5.05v1.27h-5.05v3.07h5.71v1.37h-7.26V7.21h7.26v1.37h-5.71ZM67.18,12.55c-.51-.46-1.35-.81-2.51-1.05l-.88-.18c-.84-.18-1.42-.39-1.73-.64-.31-.23-.46-.57-.46-1.02s.18-.78.52-1.02c.35-.24.86-.36,1.51-.36.85,0,1.47.15,1.85.45.38.3.59.77.64,1.41h0s1.54.01,1.54.01v-.02c-.02-.98-.37-1.75-1.04-2.31-.67-.56-1.68-.84-3.01-.84-1.1,0-1.98.25-2.63.74-.65.49-.97,1.15-.97,1.97s.27,1.47.8,1.94c.53.46,1.33.8,2.37,1.01l.87.18c.86.18,1.46.4,1.79.63.33.23.49.57.49,1,0,.53-.2.94-.6,1.22-.4.28-.98.42-1.72.42-.9,0-1.59-.19-2.04-.55-.45-.37-.69-.93-.71-1.66h0s-1.55-.01-1.55-.01v.02c0,1.14.39,2.02,1.14,2.62.74.6,1.8.9,3.13.9,1.23,0,2.21-.27,2.91-.8.7-.53,1.05-1.27,1.05-2.19,0-.77-.26-1.4-.77-1.85ZM85.8,15.94l-.1-1.55c-.02-.55-.14-1-.37-1.33-.22-.32-.57-.55-1.04-.7.52-.17.93-.46,1.22-.86.3-.41.45-.93.45-1.54,0-.86-.32-1.54-.94-2.03-.62-.49-1.48-.74-2.56-.74h-4.44v9.96h1.55v-4.09h2.93c.58,0,1.01.13,1.27.39.26.26.41.72.44,1.35l.04,1.06c0,.58.11,1.01.3,1.28h0s1.6,0,1.6,0v-.02c-.19-.29-.31-.7-.35-1.21ZM79.57,8.52h2.8c.64,0,1.14.13,1.48.4.34.27.51.67.51,1.19s-.17.97-.5,1.26c-.33.29-.8.44-1.38.44h-2.92v-3.29ZM87.36,17.17h1.55V7.21h-1.55v9.96ZM97.73,8.58v-1.37h-7.26v9.96h7.26v-1.37h-5.71v-3.07h5.05v-1.27h-5.05v-2.89h5.71ZM106.01,12.55c-.51-.46-1.35-.81-2.51-1.05l-.88-.18c-.84-.18-1.42-.39-1.73-.64-.31-.23-.46-.57-.46-1.02s.17-.78.52-1.02c.35-.24.86-.36,1.52-.36.85,0,1.47.15,1.85.45.38.3.6.77.64,1.41h0s1.54.01,1.54.01v-.02c-.02-.98-.37-1.75-1.04-2.31-.67-.56-1.68-.84-3.01-.84-1.1,0-1.98.25-2.63.74-.65.49-.97,1.15-.97,1.97s.27,1.47.8,1.94c.53.46,1.33.8,2.37,1.01l.87.18c.86.18,1.46.4,1.79.63.33.23.49.57.49,1,0,.53-.2.94-.6,1.22-.4.28-.98.42-1.72.42-.9,0-1.58-.19-2.04-.55-.46-.37-.69-.93-.71-1.66h0s-1.55-.01-1.55-.01v.02c0,1.14.39,2.02,1.14,2.62.74.6,1.8.9,3.13.9,1.23,0,2.21-.27,2.91-.8.7-.53,1.05-1.27,1.05-2.19,0-.77-.26-1.4-.77-1.85ZM122.54,18.42h-.78V5.96h.78v12.45ZM115.43,11.99l3.54-4.78h-1.73l-2.68,3.61-2.68-3.61h-1.73l3.54,4.78-3.84,5.19h1.73l2.98-4.02,2.98,4.02h1.73l-3.84-5.19ZM132.49,12.55c-.51-.46-1.35-.81-2.5-1.05l-.88-.18c-.84-.18-1.42-.39-1.73-.64-.31-.23-.46-.57-.46-1.02s.17-.78.52-1.02c.35-.24.86-.36,1.51-.36.85,0,1.47.15,1.85.45.38.3.59.77.64,1.41h0s1.54.01,1.54.01v-.02c-.02-.98-.37-1.75-1.04-2.31-.67-.56-1.68-.84-3.01-.84-1.1,0-1.98.25-2.63.74-.65.49-.97,1.15-.97,1.97s.27,1.47.8,1.94c.53.46,1.33.8,2.37,1.01l.87.18c.86.18,1.46.4,1.79.63.33.23.49.57.49,1,0,.53-.2.94-.6,1.22-.4.28-.98.42-1.72.42-.9,0-1.58-.19-2.04-.55-.45-.37-.69-.93-.71-1.66h0s-1.55-.01-1.55-.01v.02c0,1.14.39,2.02,1.14,2.62.74.6,1.8.9,3.13.9,1.23,0,2.21-.27,2.91-.8.7-.53,1.05-1.27,1.05-2.19,0-.77-.26-1.4-.77-1.85Z"/>
    <path class="cls-2" d="M28.5,17.19h-1.73l-2.97-4.01-2.97,4.01h-1.73l3.83-5.17-3.53-4.76h1.72l2.67,3.6,2.67-3.6h1.73l-3.53,4.76,3.83,5.17ZM37.45,14.37c0,.87-.3,1.57-.88,2.07-.58.5-1.43.75-2.51.75h-4.75v-4.42h-2.26l.94-1.27h1.32v-4.24h4.55c1.02,0,1.81.24,2.36.71.54.47.82,1.1.82,1.87,0,.96-.44,1.68-1.31,2.15.56.21.99.53,1.28.93.29.41.44.9.44,1.43ZM30.86,11.5h2.91c.58,0,1.03-.13,1.32-.38.29-.25.44-.64.44-1.15,0-.44-.15-.79-.46-1.03-.3-.25-.74-.37-1.3-.37h-2.91v2.93ZM35.89,14.34c0-.52-.16-.92-.48-1.18-.32-.26-.8-.39-1.44-.39h-3.12v3.11h3.12c.62,0,1.1-.13,1.42-.4.33-.26.49-.65.49-1.14ZM47.86,12.23c0,.77-.11,1.47-.34,2.09-.22.62-.57,1.18-1.01,1.66-.45.48-.99.84-1.58,1.08-.59.24-1.27.36-2.01.36s-1.43-.12-2.02-.36c-.6-.24-1.12-.6-1.57-1.08-.45-.47-.8-1.03-1.03-1.65-.23-.62-.34-1.33-.34-2.1s.11-1.47.34-2.1c.23-.62.57-1.19,1.03-1.67.44-.47.97-.83,1.57-1.07.59-.24,1.27-.36,2.02-.36s1.41.12,2.01.36c.6.24,1.13.6,1.58,1.07.45.48.79,1.04,1.01,1.67.22.62.34,1.33.34,2.1ZM39.58,12.23c0,1.17.31,2.11.92,2.79.6.69,1.42,1.04,2.43,1.04s1.83-.35,2.43-1.04c.6-.67.9-1.61.9-2.79s-.3-2.12-.9-2.8c-.61-.68-1.43-1.02-2.43-1.02s-1.82.34-2.43,1.02c-.61.7-.92,1.64-.92,2.8ZM52.75,12.02l3.53-4.76h-1.73l-2.67,3.6-2.67-3.6h-1.73l3.53,4.76-3.83,5.17h1.72l2.97-4.01,2.97,4.01h1.73l-3.83-5.17Z"/>
    <path class="cls-2" d="M8.47,10.67s-.02-.01-.03-.01-.02,0-.03.01c-2.52,1.88-6.84,6.53-5.52,7.84,1.48,1.27,3.42,2.04,5.55,2.04s4.07-.77,5.55-2.04c1.32-1.31-3-5.96-5.52-7.84Z"/>
    <path class="cls-2" d="M8.44,4.03c1.7,0,3.1.46,4.39,1.21.02,0,.02.03.01.04,0,.02-.02.02-.04.01-1.63-.35-4.11,1.04-4.35,1.17,0,0-.01,0-.02,0,0,0-.01,0-.02,0-.24-.14-2.72-1.52-4.35-1.17-.02,0-.03,0-.04-.01,0-.02,0-.03.01-.04,1.29-.75,2.69-1.21,4.39-1.21Z"/>
    <path class="cls-2" d="M2.5,6.43s.02-.02.04-.03c.14-.07,1.01-.34,3.59,2.17,0,0,.01.02.01.03,0,0,0,.02-.01.02-1.7,1.98-4.98,6.7-4.34,8.65,0,.02,0,.03-.01.04-.02,0-.03,0-.04-.01C.65,15.91.01,14.18.01,12.29.01,10,.97,7.93,2.5,6.43Z"/>
    <path class="cls-2" d="M10.74,8.6s0-.02.01-.03c2.57-2.51,3.44-2.24,3.59-2.17.01,0,.03.02.04.03,1.54,1.5,2.49,3.57,2.49,5.86,0,1.88-.64,3.62-1.72,5.01-.01.01-.03.02-.04.01-.01,0-.02-.03,0-.04.64-1.95-2.64-6.67-4.34-8.65,0,0-.01-.01-.01-.02Z"/>
  </g>
</svg>